<mxfile host="app.diagrams.net" modified="2023-06-07T00:48:07.908Z" agent="Mozilla/5.0 (Windows NT 10.0; Win64; x64) AppleWebKit/537.36 (KHTML, like Gecko) Chrome/114.0.0.0 Safari/537.36" etag="jmu-aXWF8qtTNYrYpSQ7" version="21.3.6" type="device">
  <diagram name="페이지-1" id="dxQ-XobZZoMa_k3ZvGti">
    <mxGraphModel dx="1434" dy="788" grid="1" gridSize="10" guides="1" tooltips="1" connect="1" arrows="1" fold="1" page="1" pageScale="1" pageWidth="4681" pageHeight="3300" math="0" shadow="0">
      <root>
        <mxCell id="0" />
        <mxCell id="1" parent="0" />
        <mxCell id="AWladwTIqPi8zD2T_38p-7" style="edgeStyle=orthogonalEdgeStyle;rounded=0;orthogonalLoop=1;jettySize=auto;html=1;entryX=0;entryY=0.5;entryDx=0;entryDy=0;" edge="1" parent="1" source="AWladwTIqPi8zD2T_38p-1" target="AWladwTIqPi8zD2T_38p-3">
          <mxGeometry relative="1" as="geometry" />
        </mxCell>
        <mxCell id="AWladwTIqPi8zD2T_38p-1" value="관리자" style="shape=umlActor;verticalLabelPosition=bottom;verticalAlign=top;html=1;outlineConnect=0;" vertex="1" parent="1">
          <mxGeometry x="250" y="200" width="100" height="150" as="geometry" />
        </mxCell>
        <mxCell id="AWladwTIqPi8zD2T_38p-8" style="edgeStyle=orthogonalEdgeStyle;rounded=0;orthogonalLoop=1;jettySize=auto;html=1;entryX=0;entryY=0.5;entryDx=0;entryDy=0;" edge="1" parent="1" source="AWladwTIqPi8zD2T_38p-3" target="AWladwTIqPi8zD2T_38p-4">
          <mxGeometry relative="1" as="geometry" />
        </mxCell>
        <mxCell id="AWladwTIqPi8zD2T_38p-9" style="edgeStyle=orthogonalEdgeStyle;rounded=0;orthogonalLoop=1;jettySize=auto;html=1;entryX=0.017;entryY=0.6;entryDx=0;entryDy=0;entryPerimeter=0;" edge="1" parent="1" source="AWladwTIqPi8zD2T_38p-3" target="AWladwTIqPi8zD2T_38p-5">
          <mxGeometry relative="1" as="geometry" />
        </mxCell>
        <mxCell id="AWladwTIqPi8zD2T_38p-10" style="edgeStyle=orthogonalEdgeStyle;rounded=0;orthogonalLoop=1;jettySize=auto;html=1;entryX=0;entryY=0.5;entryDx=0;entryDy=0;" edge="1" parent="1" source="AWladwTIqPi8zD2T_38p-3" target="AWladwTIqPi8zD2T_38p-6">
          <mxGeometry relative="1" as="geometry" />
        </mxCell>
        <mxCell id="AWladwTIqPi8zD2T_38p-3" value="거래처리스트보기" style="ellipse;whiteSpace=wrap;html=1;" vertex="1" parent="1">
          <mxGeometry x="510" y="235" width="120" height="80" as="geometry" />
        </mxCell>
        <mxCell id="AWladwTIqPi8zD2T_38p-14" style="edgeStyle=orthogonalEdgeStyle;rounded=0;orthogonalLoop=1;jettySize=auto;html=1;entryX=0;entryY=0.5;entryDx=0;entryDy=0;entryPerimeter=0;" edge="1" parent="1" source="AWladwTIqPi8zD2T_38p-4" target="AWladwTIqPi8zD2T_38p-11">
          <mxGeometry relative="1" as="geometry" />
        </mxCell>
        <mxCell id="AWladwTIqPi8zD2T_38p-4" value="거래처추가" style="ellipse;whiteSpace=wrap;html=1;" vertex="1" parent="1">
          <mxGeometry x="725" y="185" width="120" height="80" as="geometry" />
        </mxCell>
        <mxCell id="AWladwTIqPi8zD2T_38p-12" style="edgeStyle=orthogonalEdgeStyle;rounded=0;orthogonalLoop=1;jettySize=auto;html=1;entryX=0;entryY=0.5;entryDx=0;entryDy=0;entryPerimeter=0;" edge="1" parent="1" source="AWladwTIqPi8zD2T_38p-5" target="AWladwTIqPi8zD2T_38p-11">
          <mxGeometry relative="1" as="geometry" />
        </mxCell>
        <mxCell id="AWladwTIqPi8zD2T_38p-5" value="거래처 상세보기" style="ellipse;whiteSpace=wrap;html=1;" vertex="1" parent="1">
          <mxGeometry x="725" y="295" width="120" height="80" as="geometry" />
        </mxCell>
        <mxCell id="AWladwTIqPi8zD2T_38p-13" style="edgeStyle=orthogonalEdgeStyle;rounded=0;orthogonalLoop=1;jettySize=auto;html=1;entryX=0;entryY=0.5;entryDx=0;entryDy=0;entryPerimeter=0;" edge="1" parent="1" source="AWladwTIqPi8zD2T_38p-6" target="AWladwTIqPi8zD2T_38p-11">
          <mxGeometry relative="1" as="geometry" />
        </mxCell>
        <mxCell id="AWladwTIqPi8zD2T_38p-6" value="거래처 수정" style="ellipse;whiteSpace=wrap;html=1;" vertex="1" parent="1">
          <mxGeometry x="725" y="405" width="120" height="80" as="geometry" />
        </mxCell>
        <mxCell id="AWladwTIqPi8zD2T_38p-11" value="거래처 정보 Table" style="shape=cylinder3;whiteSpace=wrap;html=1;boundedLbl=1;backgroundOutline=1;size=15;" vertex="1" parent="1">
          <mxGeometry x="1020" y="255" width="260" height="160" as="geometry" />
        </mxCell>
      </root>
    </mxGraphModel>
  </diagram>
</mxfile>
